<?xml version="1.0" standalone="no"?>
<!DOCTYPE svg PUBLIC "-//W3C//DTD SVG 20010904//EN"
 "http://www.w3.org/TR/2001/REC-SVG-20010904/DTD/svg10.dtd">
<svg version="1.0" xmlns="http://www.w3.org/2000/svg"
 width="410.000000pt" height="410.000000pt" viewBox="0 0 410.000000 410.000000"
 preserveAspectRatio="xMidYMid meet">
<metadata>
Created by potrace 1.14, written by Peter Selinger 2001-2017
</metadata>
<g transform="translate(0.000000,410.000000) scale(0.100000,-0.100000)"
fill="#000000" stroke="none">
<path d="M1860 3138 c-771 -65 -1480 -593 -1743 -1298 -76 -203 -109 -389
-109 -605 1 -82 2 -158 4 -167 5 -24 17 -34 14 -13 -1 10 1 41 6 69 4 28 10
69 14 91 3 22 19 91 35 152 173 673 704 1222 1379 1427 296 89 591 109 919 60
212 -31 515 -144 724 -271 163 -98 407 -305 514 -436 242 -293 391 -629 443
-1000 7 -48 16 -87 20 -87 4 0 7 6 8 13 3 42 1 306 -2 327 -3 14 -7 47 -11 75
-74 584 -506 1157 -1092 1449 -174 87 -423 170 -568 191 -23 3 -50 7 -62 9
-97 19 -351 26 -493 14z"/>
<path d="M1887 2744 c-1 -1 -29 -4 -62 -7 -215 -21 -426 -93 -603 -207 -45
-28 -82 -53 -82 -55 0 -1 41 15 90 36 137 59 305 115 435 144 65 14 119 25
120 23 2 -2 -39 -35 -91 -73 -52 -38 -94 -70 -94 -72 0 -4 94 41 140 68 62 37
110 60 110 55 0 -2 -16 -13 -36 -25 -93 -55 -320 -236 -414 -331 -161 -161
-228 -276 -237 -405 -5 -78 18 -158 39 -137 8 8 8 18 0 36 -6 13 -10 56 -9 94
4 120 82 249 248 412 111 109 377 307 526 391 42 23 56 47 31 51 -17 2 -109 3
-111 2z"/>
<path d="M2253 2713 c-48 -113 -62 -279 -33 -387 33 -123 99 -230 200 -324 87
-82 280 -191 428 -243 129 -46 142 -49 142 -31 0 12 -25 25 -88 45 -48 15
-133 50 -190 77 -321 154 -485 370 -477 630 3 88 15 151 41 208 14 30 12 52
-4 52 -4 0 -12 -12 -19 -27z"/>
<path d="M2298 2684 l-13 -45 73 -74 c39 -40 72 -78 72 -84 0 -7 -30 -11 -80
-11 -65 0 -80 -3 -80 -15 0 -13 14 -15 88 -13 48 1 93 -1 100 -5 22 -15 93
-163 107 -225 5 -27 4 -29 -22 -30 -118 -1 -123 -2 -123 -21 0 -18 7 -19 82
-18 80 2 82 1 89 -23 l7 -25 1 26 c1 28 -5 27 150 45 29 3 80 12 113 19 l59
12 25 -49 c14 -27 38 -83 54 -124 l28 -74 -21 -5 c-24 -6 -97 -12 -169 -14
-41 -1 -48 -4 -48 -21 0 -18 6 -19 83 -15 45 3 101 7 124 10 l43 5 6 -40 c8
-48 17 -45 18 6 1 32 5 38 26 40 112 16 251 55 323 91 l47 23 20 -32 c27 -44
90 -175 90 -188 0 -5 4 -10 9 -10 5 0 5 21 -1 48 -4 26 -11 61 -14 77 -3 17
-15 59 -28 95 -68 196 -230 371 -456 491 -170 91 -463 182 -655 204 -33 4 -72
9 -87 10 -25 3 -29 -1 -40 -41z m295 -151 c32 -19 57 -37 55 -39 -2 -2 -35 -6
-74 -9 l-69 -6 -35 63 c-19 34 -37 66 -39 71 -4 10 84 -33 162 -80z m387 -108
c78 -33 170 -85 170 -95 0 -20 -172 -89 -178 -71 -8 24 -78 131 -113 173 l-39
47 52 -16 c29 -8 78 -26 108 -38z m-222 -25 c39 -39 86 -93 106 -119 42 -59
55 -52 -149 -81 -123 -17 -120 -18 -134 48 -7 31 -24 88 -37 126 -13 38 -23
71 -21 72 2 2 34 6 73 10 38 4 71 8 73 10 10 9 23 0 89 -66z m486 -134 c63
-52 98 -86 148 -145 l47 -55 -32 -19 c-46 -28 -128 -55 -236 -78 -51 -10 -97
-19 -101 -19 -4 0 -13 30 -20 68 -7 37 -23 97 -35 133 l-23 66 52 17 c28 9 69
27 91 40 53 32 61 32 109 -8z"/>
<path d="M1956 2538 c-21 -29 -20 -36 3 -34 11 0 29 13 41 29 l21 27 -25 0
c-14 0 -31 -9 -40 -22z"/>
<path d="M1913 2462 c-10 -7 -33 -46 -33 -56 0 -3 11 -6 23 -6 20 0 47 32 47
54 0 8 -28 14 -37 8z"/>
<path d="M1824 2305 c-22 -53 -19 -66 15 -63 24 2 30 8 34 33 3 16 8 37 11 45
5 11 -1 16 -19 18 -21 1 -29 -5 -41 -33z"/>
<path d="M1786 2151 c-15 -23 8 -141 27 -142 58 -3 77 -3 77 1 0 3 -7 23 -14
45 -8 22 -13 55 -12 73 2 31 1 32 -35 32 -21 0 -40 -4 -43 -9z"/>
<path d="M2590 2083 c0 -5 5 -15 10 -23 7 -12 9 -10 7 8 -1 19 -17 33 -17 15z"/>
<path d="M1900 1863 c1 -13 53 -71 94 -103 33 -26 47 -30 97 -30 33 0 59 4 59
9 0 5 -15 18 -32 30 -18 11 -51 38 -73 60 -36 38 -43 41 -92 41 -29 0 -53 -3
-53 -7z"/>
<path d="M509 1599 c-10 -21 -19 -43 -19 -48 0 -9 67 -8 74 0 9 12 46 77 46
81 0 2 -18 4 -41 4 -37 0 -42 -3 -60 -37z"/>
<path d="M1945 1616 c-30 -45 20 -91 64 -59 36 25 23 70 -22 78 -20 4 -30 -1
-42 -19z"/>
<path d="M2074 1619 c-21 -23 -15 -51 15 -66 44 -21 79 14 57 58 -14 29 -49
33 -72 8z"/>
<path d="M2001 1508 c-95 -17 -154 -97 -154 -208 0 -132 71 -212 192 -215 67
-2 107 13 150 55 57 57 73 185 34 266 -23 47 -81 94 -124 100 -19 3 -38 6 -44
8 -5 1 -30 -1 -54 -6z m104 -112 c62 -62 37 -201 -41 -220 -37 -10 -91 20
-103 56 -22 64 -4 154 36 177 32 19 82 13 108 -13z"/>
<path d="M2771 1508 c-95 -16 -155 -100 -153 -214 1 -107 62 -194 143 -206 13
-1 24 -10 24 -18 0 -8 8 -21 18 -28 23 -17 17 -35 -13 -42 -14 -3 -24 -14 -26
-28 -4 -20 0 -21 31 -17 49 6 74 22 81 50 8 33 -1 54 -28 64 -21 8 -19 10 22
21 51 13 91 44 114 88 27 52 22 61 -30 60 -42 0 -74 -17 -74 -38 0 -5 -15 -13
-34 -20 -66 -21 -116 22 -121 106 -6 81 29 134 88 134 36 0 77 -24 77 -44 0
-17 15 -22 65 -21 38 0 40 1 38 30 -6 84 -112 143 -222 123z"/>
<path d="M3580 1510 c-103 -18 -160 -90 -162 -203 -2 -81 14 -125 60 -169 46
-44 85 -57 157 -53 95 6 166 73 167 158 1 80 7 75 -92 76 l-90 1 0 -40 c0 -27
4 -40 13 -39 63 8 84 -12 47 -46 -30 -27 -93 -25 -124 4 -48 45 -43 171 7 206
33 23 84 19 113 -10 20 -20 35 -25 75 -25 47 0 50 1 44 23 -24 82 -119 134
-215 117z"/>
<path d="M328 1504 c-4 -3 3 -22 14 -42 12 -21 32 -57 46 -82 13 -25 37 -68
53 -96 24 -43 29 -63 29 -121 0 -38 2 -72 4 -74 2 -2 26 -3 53 -1 l48 4 1 71
c1 77 -2 68 125 293 l29 52 -58 1 -57 0 -25 -47 c-14 -26 -35 -65 -47 -86
l-21 -39 -43 85 -42 85 -52 2 c-28 1 -54 -1 -57 -5z"/>
<path d="M777 1504 c-4 -4 -7 -99 -7 -211 l0 -203 28 -1 c37 -1 233 -1 253 0
13 1 17 10 16 41 -1 22 -6 40 -11 41 -6 0 -49 1 -96 2 l-84 2 -1 43 -1 42 88
0 88 0 0 40 c0 45 7 42 -105 42 l-70 0 0 39 c0 44 -9 41 115 41 l76 0 -1 41
-1 42 -140 3 c-77 1 -143 -1 -147 -4z"/>
<path d="M1130 1301 c0 -194 1 -211 18 -212 157 -8 253 11 296 60 56 62 63
204 15 277 -40 60 -87 78 -216 82 l-113 4 0 -211z m204 105 c42 -18 60 -60 54
-128 -7 -69 -39 -98 -107 -98 l-48 0 0 113 c0 61 1 115 4 120 7 12 61 8 97 -7z"/>
<path d="M1556 1501 c-3 -5 -6 -99 -5 -209 1 -225 -4 -212 76 -203 l32 3 -1
209 0 209 -48 0 c-27 0 -51 -4 -54 -9z"/>
<path d="M2309 1508 c-1 -2 -2 -96 -3 -210 l-1 -208 25 -1 c50 -2 244 1 246 4
2 1 5 19 7 40 5 42 9 40 -115 37 l-58 -1 0 170 0 171 -50 0 c-27 0 -51 -1 -51
-2z"/>
<path d="M3061 1300 c0 -209 0 -210 22 -210 40 -1 201 -1 239 -1 35 1 36 2 33
34 -2 17 -4 37 -4 42 -1 7 -35 9 -91 8 -73 -2 -90 0 -91 12 -1 8 -2 27 -3 43
l-1 27 88 3 87 3 0 39 c0 44 9 41 -109 44 l-64 1 -2 33 c-1 19 4 36 10 38 7 3
50 6 96 7 l83 2 2 30 c3 55 3 55 -151 55 l-144 0 0 -210z"/>
</g>
</svg>
